<svg width="72" height="72" viewBox="0 0 72 72" fill="none" xmlns="http://www.w3.org/2000/svg">
<path d="M36 72C55.8823 72 72 55.8823 72 36C72 16.1178 55.8823 0 36 0C16.1178 0 0 16.1178 0 36C0 55.8823 16.1178 72 36 72Z" fill="#FFDD67"/>
<path d="M24.72 19.4399C20.88 22.6799 15.72 24.1199 10.68 23.1599C9.95995 23.0399 9.35995 25.5599 10.2 25.7999C15.96 26.8799 21.96 25.1999 26.4 21.4799C27 20.8799 25.2 18.9599 24.72 19.4399ZM61.32 23.0399C56.28 23.8799 51.12 22.5599 47.28 19.3199C46.8 18.8399 44.88 20.7599 45.6 21.3599C50.04 25.1999 56.04 26.7599 61.8 25.6799C62.64 25.4399 62.04 22.9199 61.32 23.0399Z" fill="#917524"/>
<path d="M53.52 48.4802C52.92 47.7602 51.72 47.5202 50.88 48.1202L45.84 51.4802C45 52.0802 43.68 51.9602 42.96 51.3602L37.44 46.6802C36.72 46.0802 35.52 46.0802 34.68 46.6802L29.16 51.3602C28.44 51.9602 27.12 52.0802 26.28 51.4802L21.12 48.1202C20.28 47.5202 19.08 47.7602 18.48 48.4802L13.2 54.7202C12.6 55.4402 12.72 55.6802 13.56 55.2002L18.12 52.6802C18.96 52.2002 20.28 52.3202 21 53.0402L26.52 58.4402C27.24 59.1602 28.44 59.1602 29.28 58.5602L34.68 54.4802C35.52 53.8802 36.72 53.8802 37.56 54.4802L42.84 58.5602C43.68 59.1602 44.88 59.0402 45.6 58.4402L51.12 53.0402C51.84 52.3202 53.16 52.2002 54 52.6802L58.56 55.2002C59.4 55.6802 59.64 55.4402 58.92 54.7202L53.52 48.4802ZM59.64 31.3202C60.36 31.6802 60 32.5202 59.4 32.6402C56.16 33.1202 52.8 33.7202 49.44 35.5202C54.24 36.3602 58.08 38.7602 60.24 41.2802C60.72 41.8802 60.12 42.6002 59.64 42.4802C53.88 40.4402 48 39.2402 40.68 40.0802C40.08 40.0802 39.6 39.8402 39.72 39.2402C41.64 30.4802 52.8 27.2402 59.64 31.3202ZM12.36 31.3202C11.64 31.6802 12 32.5202 12.6 32.6402C15.84 33.1202 19.2 33.7202 22.56 35.5202C17.76 36.3602 13.92 38.7602 11.76 41.2802C11.28 41.8802 11.88 42.6002 12.36 42.4802C18.12 40.4402 24 39.2402 31.32 40.0802C31.92 40.0802 32.4 39.8402 32.28 39.2402C30.36 30.4802 19.2 27.2402 12.36 31.3202Z" fill="#664E27"/>
</svg>
