<svg width="73" height="73" viewBox="0 0 73 73" fill="none" xmlns="http://www.w3.org/2000/svg">
<path d="M72.4199 36.2164C72.4199 56.2316 56.2631 72.3884 36.2479 72.3884C16.2328 72.3884 0.0759277 56.2316 0.0759277 36.2164C0.0759277 16.2013 16.2328 0.0444336 36.2479 0.0444336C56.2631 0.0444336 72.4199 16.2013 72.4199 36.2164Z" fill="#FFDD67"/>
<path d="M72.1788 13.5487C71.576 10.2932 69.7674 7.6406 66.753 6.79659C63.4975 5.95258 60.6038 7.15831 57.8306 10.0521C56.2632 5.71143 53.8517 2.45595 49.9933 0.767923C46.135 -0.920104 42.2766 0.285629 39.8652 3.29996C37.3331 6.43487 36.3686 11.3784 39.0212 17.7688C41.5532 23.7974 52.7665 35.8548 53.1282 36.2165C53.6105 35.9753 66.1502 28.1381 69.1645 24.2797C72.1788 20.5419 72.7817 16.8042 72.1788 13.5487ZM32.6308 3.29996C30.2193 0.285629 26.361 -0.920104 22.5026 0.767923C18.6443 2.45595 16.2328 5.71143 14.6654 10.0521C11.7716 7.27888 8.87784 5.95258 5.62235 6.91716C2.7286 7.76118 0.799423 10.4138 0.196556 13.6693C-0.406311 16.8042 0.317129 20.6625 3.21089 24.4003C6.3458 28.1381 18.8854 35.9753 19.3677 36.2165C19.7294 35.8548 30.9428 23.7974 33.4748 17.7688C36.1274 11.3784 35.1628 6.55544 32.6308 3.29996Z" fill="#F46767"/>
<path d="M56.7454 43.5714C56.7454 42.6068 56.1426 41.4011 54.5751 41.0394C50.355 40.1954 44.2058 39.4719 36.248 39.4719C28.2901 39.4719 22.1409 40.3159 17.9208 41.0394C16.2328 41.4011 15.7505 42.6068 15.7505 43.5714C15.7505 52.3733 22.5026 61.1751 36.248 61.1751C49.9933 61.0546 56.7454 52.2527 56.7454 43.5714Z" fill="#664E27"/>
<path d="M51.5608 43.8127C48.9082 43.3304 43.3618 42.6069 36.248 42.6069C29.1341 42.6069 23.5878 43.3304 20.9351 43.8127C19.3677 44.0538 19.2471 44.6567 19.3677 45.6213C19.4883 46.1036 19.4883 46.827 19.7294 47.5504C19.85 48.2739 20.0911 48.6356 21.2969 48.515C23.5878 48.2739 49.0287 48.2739 51.3196 48.515C52.5254 48.6356 52.6459 48.2739 52.8871 47.5504C53.0076 46.827 53.1282 46.2241 53.2488 45.6213C53.2488 44.6567 53.1282 44.0538 51.5608 43.8127Z" fill="white"/>
</svg>
