<svg width="75" height="75" viewBox="0 0 75 75" fill="none" xmlns="http://www.w3.org/2000/svg">
<circle cx="37.5" cy="37.5" r="37.5" fill="#FFAD8D"/>
<path d="M24 27.7461L25.5492 30.5461L26.9492 29.7715L37.7938 49.3713C38.6156 50.8565 39.9937 51.9545 41.6249 52.4236C43.2562 52.8927 45.007 52.6946 46.4922 51.8729C47.9774 51.0511 49.0753 49.673 49.5445 48.0417C50.0136 46.4105 49.8155 44.6596 48.9937 43.1744L38.1491 23.5746L39.5491 22.7999L37.9999 20L24 27.7461ZM40.4445 44.2475C39.6045 44.7123 38.7347 44.4621 38.2699 43.6221C37.8052 42.7821 38.0553 41.9123 38.8953 41.4475C39.7353 40.9828 40.6052 41.2329 41.0699 42.0729C41.5347 42.9129 41.2845 43.7828 40.4445 44.2475ZM40.1461 37.0983C39.3061 37.5631 38.4362 37.3129 37.9715 36.473C37.5067 35.633 37.7569 34.7631 38.5968 34.2983C39.4368 33.8336 40.3067 34.0837 40.7715 34.9237C41.2362 35.7637 40.9861 36.6336 40.1461 37.0983ZM37.673 29.3238L32.073 32.4222L29.7492 28.2222L35.3492 25.1238L37.673 29.3238Z" fill="#422A21"/>
</svg>
