<svg width="31" height="31" viewBox="0 0 31 31" fill="none" xmlns="http://www.w3.org/2000/svg">
<circle cx="15.5" cy="15.5" r="15.5" fill="#ED6734"/>
<path d="M18.2821 7.94873H10.3333C9.91171 7.94873 9.50735 8.11622 9.20922 8.41436C8.91108 8.71249 8.74359 9.11685 8.74359 9.53847V20.6667C8.74359 21.0883 8.91108 21.4927 9.20922 21.7908C9.50735 22.0889 9.91171 22.2564 10.3333 22.2564H21.4615C21.8832 22.2564 22.2875 22.0889 22.5857 21.7908C22.8838 21.4927 23.0513 21.0883 23.0513 20.6667V12.718L18.2821 7.94873ZM21.4615 20.6667H10.3333V9.53847H17.4872V13.5128H21.4615M19.8718 16.6923H11.9231V15.1026H19.8718M17.4872 19.0769H11.9231V17.4872H17.4872" fill="white"/>
</svg>
