<svg width="73" height="73" viewBox="0 0 73 73" fill="none" xmlns="http://www.w3.org/2000/svg">
<path d="M36.22 72.44C56.2238 72.44 72.44 56.2238 72.44 36.22C72.44 16.2162 56.2238 0 36.22 0C16.2162 0 0 16.2162 0 36.22C0 56.2238 16.2162 72.44 36.22 72.44Z" fill="#FFDD67"/>
<path d="M57.5898 39.1178C57.1069 38.5141 56.2618 38.6349 55.2959 38.6349H17.1442C16.1783 38.6349 15.3332 38.5141 14.8502 39.1178C10.1416 45.1545 15.6954 62.7815 36.22 62.7815C56.7447 62.7815 62.2984 45.1545 57.5898 39.1178Z" fill="#664E27"/>
<path d="M38.3932 47.9312C37.6688 47.9312 36.5822 48.5348 37.0651 50.3458C37.3066 51.191 38.5139 52.2776 38.5139 53.7264C38.5139 56.624 33.9261 56.624 33.9261 53.7264C33.9261 52.2776 35.1334 51.3117 35.3749 50.3458C35.7371 48.6556 34.6505 47.9312 34.0468 47.9312C32.1151 47.9312 29.0967 49.9836 29.0967 53.4849C29.0967 57.3483 32.3565 60.4874 36.3407 60.4874C40.3249 60.4874 43.5847 57.3483 43.5847 53.4849C43.464 50.1044 40.3249 48.0519 38.3932 47.9312Z" fill="#4C3526"/>
<path d="M26.9235 58.7971C29.5797 60.0044 32.7187 60.6081 36.22 60.6081C39.7213 60.6081 42.8603 59.8837 45.5165 58.7971C42.9811 57.469 39.842 56.7446 36.22 56.7446C32.598 56.7446 29.4589 57.469 26.9235 58.7971Z" fill="#FF717F"/>
<path d="M54.33 41.0493H18.2308C15.6954 41.0493 15.6954 45.8786 18.11 45.8786H54.33C56.7447 45.8786 56.7447 41.0493 54.33 41.0493Z" fill="white"/>
<path d="M22.3357 31.3907C25.6697 31.3907 28.3724 28.688 28.3724 25.354C28.3724 22.0201 25.6697 19.3174 22.3357 19.3174C19.0018 19.3174 16.2991 22.0201 16.2991 25.354C16.2991 28.688 19.0018 31.3907 22.3357 31.3907Z" fill="#664E27"/>
<path d="M50.1044 31.3907C53.4383 31.3907 56.141 28.688 56.141 25.354C56.141 22.0201 53.4383 19.3174 50.1044 19.3174C46.7704 19.3174 44.0677 22.0201 44.0677 25.354C44.0677 28.688 46.7704 31.3907 50.1044 31.3907Z" fill="#664E27"/>
</svg>
