<svg width="73" height="73" viewBox="0 0 73 73" fill="none" xmlns="http://www.w3.org/2000/svg">
<path d="M36.0312 72.0624C55.9307 72.0624 72.0624 55.9307 72.0624 36.0312C72.0624 16.1317 55.9307 0 36.0312 0C16.1317 0 0 16.1317 0 36.0312C0 55.9307 16.1317 72.0624 36.0312 72.0624Z" fill="#FFDD67"/>
<path d="M45.6395 55.2479H26.4228C24.6213 55.2479 24.6213 50.4437 26.4228 50.4437H45.6395C47.4411 50.4437 47.4411 55.2479 45.6395 55.2479ZM30.1461 36.0312H10.9294C9.12786 36.0312 9.12786 31.2271 10.9294 31.2271H30.1461C31.9476 31.2271 31.9476 36.0312 30.1461 36.0312ZM61.1329 36.0312H41.9163C40.1147 36.0312 40.1147 31.2271 41.9163 31.2271H61.1329C62.9345 31.2271 62.9345 36.0312 61.1329 36.0312Z" fill="#664E27"/>
</svg>
