<svg width="72" height="72" viewBox="0 0 72 72" fill="none" xmlns="http://www.w3.org/2000/svg">
<path d="M35.8428 71.6857C55.6383 71.6857 71.6857 55.6383 71.6857 35.8428C71.6857 16.0474 55.6383 0 35.8428 0C16.0474 0 0 16.0474 0 35.8428C0 55.6383 16.0474 71.6857 35.8428 71.6857Z" fill="#EF5350"/>
<path d="M46.5956 56.99C39.666 51.2552 32.0196 51.2552 25.09 56.99C24.2536 57.7069 23.5368 56.5121 24.1341 55.4368C26.2847 51.3747 30.4664 47.6709 35.8428 47.6709C41.2192 47.6709 45.5204 51.3747 47.5515 55.4368C48.1488 56.3927 47.432 57.5874 46.5956 56.99Z" fill="#302424"/>
<path d="M9.79705 27.3601C8.00491 32.9755 10.5139 39.3077 16.1293 41.8167C21.6252 44.4452 28.0769 42.4141 31.3028 37.3961L23.0589 28.1964L9.79705 27.3601Z" fill="white"/>
<path d="M14.5762 28.4354C12.9035 31.9002 14.4567 36.0818 17.9215 37.635C21.3863 39.3077 25.568 37.7545 27.1212 34.2897C28.3159 32.0197 15.6515 26.1653 14.5762 28.4354Z" fill="#302424"/>
<path d="M9.797 27.36C11.7086 26.1653 13.9787 25.5679 16.2487 25.5679C18.5188 25.5679 20.7888 26.1653 22.9394 27.1211C24.9705 28.0769 26.8821 29.5106 28.4353 31.1832C29.869 32.9754 31.0637 35.0065 31.3027 37.2765C29.7495 35.7233 28.1963 34.4091 26.5237 33.2143C24.851 32.0196 23.1783 31.0638 21.5057 30.3469C19.7135 29.5106 17.9214 28.9132 16.0098 28.3158C13.8592 27.9574 11.9476 27.599 9.797 27.36Z" fill="#302424"/>
<path d="M61.8886 27.3601C63.6808 32.9755 61.1718 39.3077 55.5564 41.8167C50.0605 44.4452 43.6088 42.4141 40.3829 37.3961L48.6268 28.1964L61.8886 27.3601Z" fill="white"/>
<path d="M57.1095 28.4354C58.7822 31.9002 57.229 36.0818 53.7642 37.635C50.2994 39.3077 46.1177 37.7545 44.5645 34.2897C43.3698 32.0197 56.0342 26.1653 57.1095 28.4354Z" fill="#302424"/>
<path d="M61.8886 27.36C59.977 26.1653 57.707 25.5679 55.4369 25.5679C53.1669 25.5679 50.8968 26.1653 48.7463 27.1211C46.7152 28.0769 44.8036 29.5106 43.2504 31.1832C41.8166 32.9754 40.6219 35.0065 40.3829 37.2765C41.9361 35.7233 43.4893 34.4091 45.162 33.2143C46.8346 32.0196 48.5073 31.0638 50.18 30.3469C51.9721 29.5106 53.7643 28.9132 55.6759 28.3158C57.8264 27.9574 59.7381 27.599 61.8886 27.36Z" fill="#302424"/>
</svg>
