<svg width="21" height="17" viewBox="0 0 21 17" fill="none" xmlns="http://www.w3.org/2000/svg">
<path d="M5.775 0C4.24337 0 2.77448 0.590757 1.69146 1.64231C0.608436 2.69386 0 4.12008 0 5.6072C0 6.11694 0.0945 6.62669 0.231 7.13643H4.515L5.8485 3.70075C6.1635 2.88516 7.4025 2.8036 7.8015 3.70075L9.975 9.17541L10.5945 7.72774C10.731 7.3913 11.0985 7.13643 11.55 7.13643H20.769C20.9055 6.62669 21 6.11694 21 5.6072C21 4.12008 20.3916 2.69386 19.3085 1.64231C18.2255 0.590757 16.7566 0 15.225 0C13.272 0 11.55 0.948126 10.5 2.38561C9.45 0.948126 7.728 0 5.775 0ZM1.05 8.66567C0.771523 8.66567 0.504451 8.77308 0.307538 8.96427C0.110625 9.15546 0 9.41477 0 9.68516C0 9.95554 0.110625 10.2149 0.307538 10.406C0.504451 10.5972 0.771523 10.7046 1.05 10.7046H3.612L9.45 16.3118C10.5 17.2294 10.5 17.2294 11.55 16.3118L17.388 10.7046H19.95C20.2285 10.7046 20.4955 10.5972 20.6925 10.406C20.8894 10.2149 21 9.95554 21 9.68516C21 9.41477 20.8894 9.15546 20.6925 8.96427C20.4955 8.77308 20.2285 8.66567 19.95 8.66567H11.97L10.9935 11.0105C10.5735 12.0402 9.366 11.8975 8.9775 11.0411L6.825 5.6072L5.817 7.98261C5.6595 8.37001 5.3025 8.66567 4.83 8.66567H1.05Z" fill="#4B4B4B"/>
</svg>
